<mxfile host="app.diagrams.net" modified="2022-09-12T18:38:25.114Z" agent="5.0 (X11)" etag="w3U0s3TH6E3qOxCSlurd" version="20.3.0" type="github">
  <diagram id="0GilZvuR8K1NqXZYQIw9" name="Page-1">
    <mxGraphModel dx="1348" dy="793" grid="1" gridSize="10" guides="1" tooltips="1" connect="1" arrows="1" fold="1" page="1" pageScale="1" pageWidth="827" pageHeight="1169" math="0" shadow="0">
      <root>
        <mxCell id="0" />
        <mxCell id="1" parent="0" />
        <mxCell id="PQVVMXy_Z7LRWe_OsTwH-1" value="" style="whiteSpace=wrap;html=1;aspect=fixed;" parent="1" vertex="1">
          <mxGeometry x="370" y="180" width="160" height="160" as="geometry" />
        </mxCell>
        <mxCell id="PQVVMXy_Z7LRWe_OsTwH-2" value="&lt;div style=&quot;text-align: left;&quot;&gt;&lt;span style=&quot;background-color: initial;&quot;&gt;&lt;b&gt;&lt;span style=&quot;white-space: pre;&quot;&gt; &lt;/span&gt;CLIENTES:&lt;/b&gt;&lt;/span&gt;&lt;/div&gt;&lt;ul&gt;&lt;li style=&quot;text-align: left;&quot;&gt;Nome&lt;/li&gt;&lt;li style=&quot;text-align: left;&quot;&gt;CPF&lt;/li&gt;&lt;li style=&quot;text-align: left;&quot;&gt;data de nascimento&lt;/li&gt;&lt;li style=&quot;text-align: left;&quot;&gt;endereço residencial&amp;nbsp;&lt;/li&gt;&lt;li style=&quot;text-align: left;&quot;&gt;telefone de contato&lt;br&gt;&lt;/li&gt;&lt;/ul&gt;" style="text;html=1;resizable=0;autosize=1;align=center;verticalAlign=middle;points=[];fillColor=none;strokeColor=none;rounded=0;" parent="1" vertex="1">
          <mxGeometry x="360" y="195" width="180" height="120" as="geometry" />
        </mxCell>
        <mxCell id="PQVVMXy_Z7LRWe_OsTwH-4" value="" style="whiteSpace=wrap;html=1;aspect=fixed;" parent="1" vertex="1">
          <mxGeometry x="130" y="160" width="160" height="160" as="geometry" />
        </mxCell>
        <mxCell id="PQVVMXy_Z7LRWe_OsTwH-5" value="&lt;div style=&quot;text-align: left;&quot;&gt;&lt;span style=&quot;background-color: initial;&quot;&gt;&lt;b&gt;&lt;span style=&quot;&quot;&gt; &lt;/span&gt;&lt;span style=&quot;white-space: pre;&quot;&gt; &lt;/span&gt;AGÊNCIAS:&lt;/b&gt;&lt;/span&gt;&lt;/div&gt;&lt;ul&gt;&lt;li style=&quot;text-align: left;&quot;&gt;Código da agência&lt;/li&gt;&lt;li style=&quot;text-align: left;&quot;&gt;Nome&lt;/li&gt;&lt;li style=&quot;text-align: left;&quot;&gt;Endereço&lt;/li&gt;&lt;li style=&quot;text-align: left;&quot;&gt;Data de criação&lt;br&gt;&lt;/li&gt;&lt;/ul&gt;" style="text;html=1;resizable=0;autosize=1;align=center;verticalAlign=middle;points=[];fillColor=none;strokeColor=none;rounded=0;" parent="1" vertex="1">
          <mxGeometry x="120" y="180" width="160" height="110" as="geometry" />
        </mxCell>
        <mxCell id="PQVVMXy_Z7LRWe_OsTwH-6" value="" style="whiteSpace=wrap;html=1;aspect=fixed;" parent="1" vertex="1">
          <mxGeometry x="600" y="70" width="180" height="180" as="geometry" />
        </mxCell>
        <mxCell id="PQVVMXy_Z7LRWe_OsTwH-7" value="&lt;div style=&quot;text-align: left;&quot;&gt;&lt;span style=&quot;background-color: initial;&quot;&gt;&lt;b&gt;&lt;span style=&quot;&quot;&gt; &lt;/span&gt;&lt;span style=&quot;white-space: pre;&quot;&gt; &lt;/span&gt;CONTAS:&lt;/b&gt;&lt;/span&gt;&lt;/div&gt;&lt;ul&gt;&lt;li style=&quot;text-align: left;&quot;&gt;Código da conta,&amp;nbsp;&lt;/li&gt;&lt;li style=&quot;text-align: left;&quot;&gt;agência detentora da conta,&amp;nbsp;&lt;/li&gt;&lt;li style=&quot;text-align: left;&quot;&gt;dono da conta,&amp;nbsp;&lt;/li&gt;&lt;li style=&quot;text-align: left;&quot;&gt;saldo,&amp;nbsp;&lt;/li&gt;&lt;li style=&quot;text-align: left;&quot;&gt;tipo da conta&lt;br&gt;&lt;/li&gt;&lt;/ul&gt;" style="text;html=1;resizable=0;autosize=1;align=center;verticalAlign=middle;points=[];fillColor=none;strokeColor=none;rounded=0;" parent="1" vertex="1">
          <mxGeometry x="570" y="100" width="220" height="120" as="geometry" />
        </mxCell>
        <mxCell id="z7_pd3Y7RCWD5O9KDtyg-2" value="" style="whiteSpace=wrap;html=1;aspect=fixed;" vertex="1" parent="1">
          <mxGeometry x="287.5" y="492.5" width="155" height="155" as="geometry" />
        </mxCell>
        <mxCell id="z7_pd3Y7RCWD5O9KDtyg-3" value="&lt;div style=&quot;text-align: left;&quot;&gt;&lt;span style=&quot;background-color: initial;&quot;&gt;&lt;b&gt;&lt;span style=&quot;&quot;&gt; &lt;/span&gt;&lt;span style=&quot;white-space: pre;&quot;&gt; &lt;/span&gt;TRANSAÇÕES:&lt;/b&gt;&lt;/span&gt;&lt;/div&gt;&lt;ul&gt;&lt;li style=&quot;text-align: left;&quot;&gt;Tipo da transição&lt;br&gt;&lt;/li&gt;&lt;li style=&quot;text-align: left;&quot;&gt;conta de origem&lt;br&gt;&lt;/li&gt;&lt;li style=&quot;text-align: left;&quot;&gt;Valor&lt;br&gt;&lt;/li&gt;&lt;/ul&gt;" style="text;html=1;resizable=0;autosize=1;align=center;verticalAlign=middle;points=[];fillColor=none;strokeColor=none;rounded=0;" vertex="1" parent="1">
          <mxGeometry x="280" y="520" width="170" height="100" as="geometry" />
        </mxCell>
      </root>
    </mxGraphModel>
  </diagram>
</mxfile>
